<svg xmlns="http://www.w3.org/2000/svg" width="283" height="53"><g fill="none" fill-rule="evenodd"><path fill="#EA4A5A" d="M72.73 28.65V25.4h8.87v.23c0 1.3-.17 5.37-2.84 8-2 2-4.46 2.56-6.87 2.56-2.4 0-4.9-.5-7.02-2.61-.67-.67-2.87-3.1-2.87-7.45a9.88 9.88 0 0 1 2.84-7.2c1.45-1.47 3.89-2.95 7.63-2.95 1.45 0 2.99.23 4.46 1.01a9.1 9.1 0 0 1 3.63 3.54l-3.28 1.77a5.27 5.27 0 0 0-4.99-2.9c-1.53 0-3.27.55-4.46 1.71a7.2 7.2 0 0 0-1.94 5.1c0 2.59 1.1 4.12 1.9 4.9a5.95 5.95 0 0 0 4.3 1.66c1.28 0 2.73-.35 3.8-1.16a5.16 5.16 0 0 0 1.83-2.96h-5zm12.33-12.24h5.6c2.67 0 4.03.7 4.93 1.45a5.5 5.5 0 0 1 1.91 4.35c0 1.89-.75 3.54-2.26 4.55-.5.35-1.19.67-2.12.85l6.04 8.15h-4.7l-5.16-7.78h-.47v7.78h-3.77V16.4zm4.07 3.08v5.83h1.07c.73 0 3.72-.1 3.72-2.93 0-2.88-2.96-2.9-3.66-2.9h-1.13zm26.04 16.27l-1.7-4.06h-7.81l-1.71 4.06h-4.09l8.32-19.35h2.96l8.1 19.35h-4.07zm-8.32-7.14h5.5l-2.75-6.96-2.75 6.96zm14.21-12.2h5.63c2.17 0 3.68.22 5.1 1.47a6.16 6.16 0 0 1 1.98 4.67c0 .75-.12 2.84-1.6 4.32-1.07 1.07-2.67 1.71-4.9 1.71h-2.44v7.17h-3.77V16.4zm4.2 3.24v5.68h1.54c.73 0 1.65 0 2.47-.6a2.89 2.89 0 0 0 1.04-2.27c0-1.07-.52-1.8-1.07-2.2a4.54 4.54 0 0 0-2.67-.61h-1.3zm15.57-3.25v7.48h8.18v-7.48h3.77v19.35h-3.77v-8.62h-8.18v8.62h-3.77V16.4h3.77zm16.28 0h3.77v19.35h-3.77V16.4zm21.87 14.24v4.4c-1.16.62-2.7 1.14-4.79 1.14-3.39 0-5.45-1.16-7.07-2.7a9.64 9.64 0 0 1-3.1-7.4c0-3.5 1.45-6.02 3.1-7.56 1.94-1.83 4.35-2.55 7.1-2.55 1.37 0 2.99.23 4.76 1.19v4.4a6.22 6.22 0 0 0-4.67-2.17c-3.89 0-6.4 3.19-6.4 6.76a6.4 6.4 0 0 0 6.55 6.6c1.8 0 3.39-.77 4.52-2.1zm11.05 5.1V16.42h3.95c1.94 0 4.7.2 7.13 2.26a9.43 9.43 0 0 1 3.3 7.43c0 4.06-2 6.23-3.39 7.42-1.77 1.51-3.62 2.23-7.07 2.23h-3.92zm1.96-17.3v15.28h1.89c1.53 0 3.65-.18 5.54-1.74a7.4 7.4 0 0 0 2.6-5.9c0-4.63-3.24-7.65-8.14-7.65h-1.89zm26.05-2.04v2.03h-7.89v5.74h7.66v2.03h-7.66v7.52h7.89v2.03H208V16.4h10.04zm14.47 2.7l-1.72 1.13c-.26-.52-.7-1.1-1.13-1.45a3.48 3.48 0 0 0-2.17-.67c-1.92 0-3.25 1.2-3.25 2.99 0 .75.2 1.19.73 1.68.58.58 1.3.9 2.03 1.22l1.85.81a9.4 9.4 0 0 1 2.99 1.83c.98.99 1.4 2.12 1.4 3.5 0 3.58-2.65 5.95-6.13 5.95a5.77 5.77 0 0 1-4.2-1.56 7.01 7.01 0 0 1-1.8-3.43l2.09-.57c.14 1.01.6 1.88 1.16 2.46a3.7 3.7 0 0 0 2.78 1.07c2.64 0 3.89-1.88 3.89-3.82 0-.88-.26-1.63-.96-2.27a8.44 8.44 0 0 0-2.32-1.33l-1.74-.81c-.75-.35-1.71-.76-2.58-1.6a4.02 4.02 0 0 1-1.34-3.16c0-2.99 2.3-4.99 5.43-4.99 1.19 0 2.14.23 3.1.87.78.52 1.45 1.3 1.89 2.15zm4.5-2.7h2.14v19.35H237V16.4zm17.04 11.66v-2.03h8.06v.46c0 2.15-.64 4.47-1.85 6.12a8.68 8.68 0 0 1-7.2 3.48 9.83 9.83 0 0 1-10.03-10c0-5.63 4.32-10 10.1-10 1.85 0 4.02.46 5.9 1.9.88.67 1.7 1.54 2.24 2.3l-1.6 1.45a10.22 10.22 0 0 0-1.82-2 7.1 7.1 0 0 0-4.7-1.63c-4.67 0-7.92 3.51-7.92 8 0 5.29 4.21 7.95 7.86 7.95 2.58 0 4.82-1.3 5.92-3.25.35-.6.72-1.53.78-2.75h-5.74zm13.87 7.69h-2.15V15.6l15.08 15.8V16.41H283v20.21l-15.08-15.8v14.94z"/><circle cx="26.5" cy="26.5" r="26" stroke="#EA4A5A"/><path stroke="#EA4A5A" d="M26.5.5l26 26-26 26-26-26z"/><path stroke="#EA4A5A" d="M5.5 42L26.5.53 47 42"/></g></svg>