<?xml version="1.0" encoding="UTF-8" standalone="no"?>
<!-- Created with Inkscape (http://www.inkscape.org/) -->
<svg
   xmlns:dc="http://purl.org/dc/elements/1.1/"
   xmlns:cc="http://creativecommons.org/ns#"
   xmlns:rdf="http://www.w3.org/1999/02/22-rdf-syntax-ns#"
   xmlns:svg="http://www.w3.org/2000/svg"
   xmlns="http://www.w3.org/2000/svg"
   xmlns:sodipodi="http://sodipodi.sourceforge.net/DTD/sodipodi-0.dtd"
   xmlns:inkscape="http://www.inkscape.org/namespaces/inkscape"
   version="1.0"
   width="454.99899"
   height="455"
   viewBox="-9.302 -9.782 454.999 455"
   id="Layer_1"
   xml:space="preserve"
   sodipodi:version="0.32"
   inkscape:version="0.46"
   sodipodi:docname="modelf_pinout.svg"
   inkscape:output_extension="org.inkscape.output.svg.inkscape"><metadata
   id="metadata19818"><rdf:RDF><cc:Work
       rdf:about=""><dc:format>image/svg+xml</dc:format><dc:type
         rdf:resource="http://purl.org/dc/dcmitype/StillImage" /></cc:Work></rdf:RDF></metadata><sodipodi:namedview
   inkscape:window-height="844"
   inkscape:window-width="1089"
   inkscape:pageshadow="2"
   inkscape:pageopacity="0.0"
   guidetolerance="10.0"
   gridtolerance="10.0"
   objecttolerance="10.0"
   borderopacity="1.0"
   bordercolor="#666666"
   pagecolor="#ffffff"
   id="base"
   showgrid="false"
   inkscape:zoom="1.4359707"
   inkscape:cx="110.15727"
   inkscape:cy="227.5"
   inkscape:window-x="-4"
   inkscape:window-y="-4"
   inkscape:current-layer="Layer_1" /><defs
   id="defs4693"><inkscape:perspective
     sodipodi:type="inkscape:persp3d"
     inkscape:vp_x="0 : 227.5 : 1"
     inkscape:vp_y="0 : 1000 : 0"
     inkscape:vp_z="454.99899 : 227.5 : 1"
     inkscape:persp3d-origin="227.4995 : 151.66667 : 1"
     id="perspective19820" /></defs>
<path
   d="M 19.197,217.218 C 19.197,326.849 108.073,415.721 217.696,415.721 C 327.322,415.721 416.196,326.849 416.196,217.218 C 416.196,107.594 327.324,18.715 217.696,18.715 C 108.073,18.715 19.197,107.594 19.197,217.218 z "
   style="fill:#ffffff;stroke:#000000;stroke-width:5"
   id="path4678" />
<path
   d="M 298.979,217.215 C 298.979,231.108 310.241,242.363 324.129,242.363 C 338.024,242.363 349.278,231.105 349.278,217.215 C 349.278,203.332 338.021,192.069 324.129,192.069 C 310.239,192.07 298.979,203.332 298.979,217.215 z "
   style="fill:#ff0000;stroke:#000000;stroke-width:5;fill-opacity:1"
   id="path4680" />
<path
   d="M 86.112,217.215 C 86.112,231.108 97.374,242.363 111.263,242.363 C 125.157,242.363 136.414,231.105 136.414,217.215 C 136.414,203.332 125.157,192.069 111.263,192.069 C 97.374,192.07 86.112,203.332 86.112,217.215 z "
   style="fill:#00ff00;stroke:#000000;stroke-width:5;fill-opacity:1"
   id="path4682" />
<path
   d="M 124.657,124.185 C 114.837,134.005 114.837,149.931 124.662,159.751 C 134.483,169.577 150.402,169.577 160.228,159.751 C 170.042,149.936 170.048,134.01 160.223,124.19 C 150.402,114.365 134.477,114.365 124.657,124.185 z "
   style="fill:none;stroke:#000000;stroke-width:5"
   id="path4684" />
<path
   d="M 217.696,85.657 C 203.808,85.657 192.546,96.919 192.551,110.807 C 192.546,124.701 203.802,135.958 217.699,135.958 C 231.576,135.958 242.842,124.701 242.842,110.807 C 242.842,96.919 231.585,85.657 217.696,85.657 z "
   style="fill:#ac7f53;stroke:#000000;stroke-width:5;fill-opacity:1"
   id="path4686" />
<path
   d="M 310.726,124.202 C 300.912,114.381 284.981,114.381 275.164,124.207 C 265.333,134.027 265.333,149.946 275.159,159.772 C 284.974,169.587 300.899,169.593 310.721,159.767 C 320.546,149.946 320.546,134.021 310.726,124.202 z "
   style="fill:#000000;stroke:#000000;stroke-width:5;fill-opacity:1"
   id="path4688" />
<path
   d="M 217.699,35.339 C 117.251,35.339 35.816,116.775 35.816,217.218 C 35.816,305.024 98.05,378.297 180.812,395.343 C 183.304,377.177 198.85,363.167 217.702,363.167 C 236.54,363.167 252.088,377.182 254.577,395.349 C 337.342,378.297 399.576,305.024 399.576,217.218 C 399.574,116.775 318.146,35.339 217.699,35.339 z "
   style="fill:none;stroke:#000000;stroke-width:5"
   id="path4690" />
<text
   xml:space="preserve"
   style="font-size:18px;font-style:normal;font-variant:normal;font-weight:normal;font-stretch:normal;text-align:start;line-height:100%;writing-mode:lr-tb;text-anchor:start;fill:#000000;fill-opacity:1;stroke:none;stroke-width:1px;stroke-linecap:butt;stroke-linejoin:miter;stroke-opacity:1;font-family:DejaVu Sans;-inkscape-font-specification:DejaVu Sans"
   x="195.78545"
   y="72.656815"
   id="text19822"
   sodipodi:linespacing="100%"><tspan
     sodipodi:role="line"
     id="tspan19824"
     x="195.78545"
     y="72.656815">Data</tspan></text>
<text
   xml:space="preserve"
   style="font-size:18px;font-style:normal;font-variant:normal;font-weight:normal;font-stretch:normal;text-align:start;line-height:100%;writing-mode:lr-tb;text-anchor:start;fill:#000000;fill-opacity:1;stroke:none;stroke-width:1px;stroke-linecap:butt;stroke-linejoin:miter;stroke-opacity:1;font-family:DejaVu Sans;-inkscape-font-specification:DejaVu Sans"
   x="120.698"
   y="104.46042"
   id="text19826"
   sodipodi:linespacing="100%"><tspan
     sodipodi:role="line"
     id="tspan19828"
     x="120.698"
     y="104.46042">+5v</tspan></text>
<text
   xml:space="preserve"
   style="font-size:18px;font-style:normal;font-variant:normal;font-weight:normal;font-stretch:normal;text-align:start;line-height:100%;writing-mode:lr-tb;text-anchor:start;fill:#000000;fill-opacity:1;stroke:none;stroke-width:1px;stroke-linecap:butt;stroke-linejoin:miter;stroke-opacity:1;font-family:DejaVu Sans;-inkscape-font-specification:DejaVu Sans"
   x="88.193024"
   y="184.0706"
   id="text19830"
   sodipodi:linespacing="100%"><tspan
     sodipodi:role="line"
     id="tspan19832"
     x="88.193024"
     y="184.0706">Reset</tspan></text>
<text
   xml:space="preserve"
   style="font-size:18px;font-style:normal;font-variant:normal;font-weight:normal;font-stretch:normal;text-align:start;line-height:100%;writing-mode:lr-tb;text-anchor:start;fill:#000000;fill-opacity:1;stroke:none;stroke-width:1px;stroke-linecap:butt;stroke-linejoin:miter;stroke-opacity:1;font-family:DejaVu Sans;-inkscape-font-specification:DejaVu Sans"
   x="301.28928"
   y="186.15977"
   id="text19834"
   sodipodi:linespacing="100%"><tspan
     sodipodi:role="line"
     id="tspan19836"
     x="301.28928"
     y="186.15977">Clock</tspan></text>
<text
   xml:space="preserve"
   style="font-size:18px;font-style:normal;font-variant:normal;font-weight:normal;font-stretch:normal;text-align:start;line-height:100%;writing-mode:lr-tb;text-anchor:start;fill:#000000;fill-opacity:1;stroke:none;stroke-width:1px;stroke-linecap:butt;stroke-linejoin:miter;stroke-opacity:1;font-family:DejaVu Sans;-inkscape-font-specification:DejaVu Sans"
   x="261.59488"
   y="106.77097"
   id="text19838"
   sodipodi:linespacing="100%"><tspan
     sodipodi:role="line"
     id="tspan19840"
     x="261.59488"
     y="106.77097">Ground</tspan></text>
</svg>