M48
;GenerationSoftware,Autodesk,EAGLE,9.6.2*%
;CreationDate,2021-04-17T02:34:24Z*%
FMAT,2
ICI,OFF
METRIC,TZ,000.000
T7C0.305
T6C0.350
T5C0.400
T4C0.650
T3C1.016
T2C2.311
T1C3.302
%
G90
M71
T1
X109220Y78740
X2540Y2540
X2540Y78740
X109220Y84328
X40640Y2540
X40640Y78740
X55880Y2540
X55880Y78740
X93980Y2540
X93980Y78740
X109220Y2540
X147320Y2540
X147320Y78740
X2540Y84328
X2540Y160528
X40640Y84328
X40640Y160528
X55880Y84328
X55880Y160528
X93980Y84328
X93980Y160528
X109220Y160528
X147320Y84328
X147320Y160528
T2
X147320Y155664
X147320Y124752
X147320Y137884
X147320Y106972
X147320Y120104
X147320Y89192
X147320Y102324
X93980Y142532
X93980Y155664
X93980Y7404
X93980Y124752
X93980Y137884
X40640Y42964
X93980Y120104
X147320Y60744
X147320Y73876
X147320Y42964
X147320Y56096
X93980Y89192
X93980Y102324
X40640Y20536
X93980Y106972
X40640Y7404
X40640Y38316
X40640Y142532
X40640Y155664
X40640Y25184
X40640Y56096
X40640Y73876
X40640Y60744
X40640Y124752
X40640Y137884
X93980Y73876
X93980Y60744
X147320Y25184
X147320Y38316
X40640Y106972
X40640Y120104
X93980Y20536
X147320Y7404
X147320Y20536
X147320Y142532
X40640Y89192
X40640Y102324
X93980Y38316
X93980Y25184
X93980Y56096
X93980Y42964
T3
X80010Y161798
X82550Y161798
X87630Y161798
X90170Y161798
X120650Y83058
X123190Y83058
X143510Y161798
X125730Y83058
X128270Y83058
X120650Y161798
X123190Y161798
X125730Y161798
X128270Y161798
X130810Y161798
X133350Y161798
X135890Y161798
X138430Y161798
X140970Y161798
X69850Y80010
X87630Y80010
X13970Y1270
X16510Y1270
X19050Y1270
X21590Y1270
X13970Y80010
X16510Y80010
X19050Y80010
X21590Y80010
X24130Y80010
X26670Y80010
X29210Y80010
X31750Y80010
X34290Y80010
X36830Y80010
X67310Y1270
X69850Y1270
X72390Y1270
X74930Y1270
X67310Y80010
X85090Y161798
X72390Y80010
X74930Y80010
X77470Y80010
X80010Y80010
X82550Y80010
X85090Y80010
X90170Y80010
X120650Y1270
X123190Y1270
X125730Y1270
X128270Y1270
X120650Y80010
X123190Y80010
X125730Y80010
X128270Y80010
X130810Y80010
X133350Y80010
X135890Y80010
X138430Y80010
X140970Y80010
X143510Y80010
X13970Y83058
X16510Y83058
X19050Y83058
X21590Y83058
X13970Y161798
X16510Y161798
X19050Y161798
X21590Y161798
X24130Y161798
X26670Y161798
X29210Y161798
X31750Y161798
X34290Y161798
X36830Y161798
X67310Y83058
X69850Y83058
X72390Y83058
X74930Y83058
X67310Y161798
X69850Y161798
X72390Y161798
X74930Y161798
X77470Y161798
T4
X4905Y125318
X111585Y125318
X58245Y37750
X58245Y43530
X111585Y43530
X111585Y37750
X4905Y37750
X4905Y43530
X111585Y119538
X4905Y119538
X58245Y125318
X58245Y119538
T5
X58775Y44958
X107935Y126746
X107935Y118110
X112115Y118110
X112115Y126746
X58775Y36322
X54595Y36322
X54595Y44958
X5435Y44958
X5435Y36322
X1255Y36322
X1255Y44958
X107935Y44958
X1255Y126746
X1255Y118110
X54595Y126746
X54595Y118110
X58775Y118110
X58775Y126746
X5435Y118110
X5435Y126746
X107935Y36322
X112115Y36322
X112115Y44958
T6
X60960Y13970
X68580Y13970
X66675Y73660
X113030Y10160
X116078Y77724
X6350Y10160
X7620Y13970
X13335Y73660
X9398Y77724
X15240Y95758
X13335Y155448
X7620Y95758
X59690Y10160
X62738Y77724
X59690Y91948
X66675Y155448
X68580Y95758
X60960Y95758
X9398Y159512
X6350Y91948
X121920Y13970
X15240Y13970
X114300Y95758
X120015Y155448
X113030Y91948
X116078Y159512
X120015Y73660
X121920Y95758
X114300Y13970
X62738Y159512
T7
X68072Y36830
X71501Y35814
X121920Y40640
X130810Y40767
X123952Y35179
X128397Y36703
X127889Y44450
X125222Y44577
X123190Y27051
X117602Y44196
X121920Y30734
X115570Y29083
X128270Y30734
X129540Y30734
X130810Y30734
X128905Y25781
X127889Y25400
X140716Y17399
X143129Y18669
X145415Y17526
X143129Y16256
X114046Y3556
X114046Y6477
X143129Y33909
X143129Y36576
X145542Y35306
X140716Y35306
X143129Y51689
X143129Y54356
X145415Y53086
X140843Y53086
X143129Y69596
X143129Y72009
X145415Y70866
X140843Y70866
X117094Y74676
X117094Y77724
X118745Y76200
X126619Y48387
X125730Y40640
X124460Y41910
X127000Y41910
X127000Y39370
X124460Y39370
X118491Y47117
X112638Y46074
X115570Y36576
X108331Y34290
X108458Y46990
X114280Y40600
X117221Y35560
X118491Y39370
X117221Y33020
X129540Y37846
X130810Y36449
X132080Y45339
X134620Y45339
X132080Y54229
X134620Y54229
X132080Y18669
X134620Y17399
X137160Y70739
X132080Y69850
X120269Y44196
X128905Y51181
X116332Y52070
X133350Y13970
X133350Y12700
X133350Y30226
X133350Y31750
X133350Y49530
X133350Y48006
X133350Y67310
X133350Y65786
X116840Y40640
X130683Y27940
X116332Y34290
X121793Y39802
X118110Y50800
X114681Y21590
X118110Y55880
X117070Y7620
X133329Y71141
X114871Y70549
X121666Y41478
X118999Y50800
X113030Y22860
X118999Y58420
X116070Y6350
X120688Y72390
X132080Y72390
X128968Y45212
X129794Y11430
X123787Y45974
X132423Y29210
X124460Y49530
X132080Y46990
X122126Y64770
X131699Y64770
X115570Y38862
X115570Y43053
X124714Y36703
X121412Y38100
X121412Y36830
X124841Y35814
X15240Y122428
X24130Y122555
X17272Y116967
X21717Y118491
X21209Y126238
X18542Y126365
X16510Y108839
X10922Y125984
X15240Y112522
X8890Y110871
X21590Y112522
X22860Y112522
X24130Y112522
X22225Y107569
X21209Y107188
X34036Y99187
X36449Y100457
X38735Y99314
X36449Y98044
X7366Y85344
X7366Y88265
X36449Y115697
X36449Y118364
X38862Y117094
X34036Y117094
X36449Y133477
X36449Y136144
X38735Y134874
X34163Y134874
X36449Y151384
X36449Y153797
X38735Y152654
X34163Y152654
X10414Y156464
X10414Y159512
X12065Y157988
X19939Y130175
X19050Y122428
X17780Y123698
X20320Y123698
X20320Y121158
X17780Y121158
X11811Y128905
X5958Y127862
X8890Y118364
X1651Y116078
X1778Y128778
X7600Y122388
X10541Y117348
X11811Y121158
X10541Y114808
X22860Y119634
X24130Y118237
X25400Y127127
X27940Y127127
X25400Y136017
X27940Y136017
X25400Y100457
X27940Y99187
X30480Y152527
X25400Y151638
X13589Y125984
X22225Y132969
X9652Y133858
X26670Y95758
X26670Y94488
X26670Y112014
X26670Y113538
X26670Y131318
X26670Y129794
X26670Y149098
X26670Y147574
X10160Y122428
X24003Y109728
X9652Y116078
X15113Y121590
X11430Y132588
X8001Y103378
X11430Y137668
X10390Y89408
X26649Y152929
X8191Y152337
X14986Y123266
X12319Y132588
X6350Y104648
X12319Y140208
X9390Y88138
X14008Y154178
X25400Y154178
X22288Y127000
X23114Y93218
X17107Y127762
X25743Y110998
X18161Y35814
X25400Y128778
X15446Y146558
X25019Y146558
X8890Y120650
X8890Y124841
X18034Y118491
X14732Y119888
X14732Y118618
X18161Y117602
X15240Y40640
X24130Y40767
X68580Y122428
X77470Y122555
X70612Y116967
X75057Y118491
X74549Y126238
X71882Y126365
X69850Y108839
X64262Y125984
X17272Y35179
X21717Y36703
X21209Y44450
X68580Y112522
X62230Y110871
X74930Y112522
X76200Y112522
X77470Y112522
X75565Y107569
X74549Y107188
X87376Y99187
X89789Y100457
X92075Y99314
X89789Y98044
X60706Y85344
X60706Y88265
X89789Y115697
X89789Y118364
X92202Y117094
X87376Y117094
X89789Y133477
X89789Y136144
X92075Y134874
X87503Y134874
X89789Y151384
X89789Y153797
X92075Y152654
X87503Y152654
X63754Y156464
X63754Y159512
X65405Y157988
X73279Y130175
X72390Y122428
X71120Y123698
X73660Y123698
X73660Y121158
X71120Y121158
X65151Y128905
X59298Y127862
X62230Y118364
X54991Y116078
X55118Y128778
X60940Y122388
X63881Y117348
X65151Y121158
X63881Y114808
X76200Y119634
X77470Y118237
X78740Y127127
X81280Y127127
X78740Y136017
X81280Y136017
X78740Y100457
X81280Y99187
X83820Y152527
X78740Y151638
X66929Y125984
X75565Y132969
X62992Y133858
X80010Y95758
X80010Y94488
X80010Y112014
X80010Y113538
X80010Y131318
X80010Y129794
X80010Y149098
X80010Y147574
X63500Y122428
X77343Y109728
X62992Y116078
X68453Y121590
X64770Y132588
X61341Y103378
X64770Y137668
X63730Y89408
X79989Y152929
X61531Y152337
X68326Y123266
X65659Y132588
X59690Y104648
X65659Y140208
X62730Y88138
X67348Y154178
X78740Y154178
X75629Y127000
X76454Y93218
X70447Y127762
X79083Y110998
X71120Y131318
X78740Y128778
X68786Y146558
X78359Y146558
X62230Y120650
X62230Y124841
X71374Y118491
X68072Y119888
X68072Y118618
X71501Y117602
X18542Y44577
X16510Y27051
X121920Y122428
X130810Y122555
X123952Y116967
X128397Y118491
X127889Y126238
X125222Y126365
X123190Y108839
X117602Y125984
X10922Y44196
X15240Y30734
X8890Y29083
X121920Y112522
X115570Y110871
X128270Y112522
X129540Y112522
X130810Y112522
X128905Y107569
X127889Y107188
X140716Y99187
X143129Y100457
X145415Y99314
X143129Y98044
X114046Y85344
X114046Y88265
X143129Y115697
X143129Y118364
X145542Y117094
X140716Y117094
X143129Y133477
X143129Y136144
X145415Y134874
X140843Y134874
X143129Y151384
X143129Y153797
X145415Y152654
X140843Y152654
X117094Y156464
X117094Y159512
X118745Y157988
X126619Y130175
X125730Y122428
X124460Y123698
X127000Y123698
X127000Y121158
X124460Y121158
X118491Y128905
X112638Y127862
X115570Y118364
X108331Y116078
X108458Y128778
X114280Y122388
X117221Y117348
X118491Y121158
X117221Y114808
X129540Y119634
X130810Y118237
X132080Y127127
X134620Y127127
X132080Y136017
X134620Y136017
X132080Y100457
X134620Y99187
X137160Y152527
X132080Y151638
X120269Y125984
X128905Y132969
X116332Y133858
X133350Y95758
X133350Y94488
X133350Y112014
X133350Y113538
X133350Y131318
X133350Y129794
X133350Y149098
X133350Y147574
X116840Y122428
X130683Y109728
X116332Y116078
X121793Y121590
X118110Y132588
X114681Y103378
X118110Y137668
X117070Y89408
X133329Y152929
X114871Y152337
X121666Y123266
X118999Y132588
X113030Y104648
X118999Y140208
X21590Y30734
X120688Y154178
X132080Y154178
X128968Y127000
X129794Y93218
X123787Y127762
X132423Y110998
X124460Y131318
X132080Y128778
X122126Y146558
X131699Y146558
X115570Y120650
X115570Y124841
X124714Y118491
X121412Y119888
X121412Y118618
X124841Y117602
X22860Y30734
X24130Y30734
X22225Y25781
X21209Y25400
X34036Y17399
X36449Y18669
X38735Y17526
X36449Y16256
X7366Y3556
X7366Y6477
X36449Y33909
X36449Y36576
X38862Y35306
X34036Y35306
X36449Y51689
X36449Y54356
X38735Y53086
X34163Y53086
X36449Y69596
X36449Y72009
X38735Y70866
X34163Y70866
X10414Y74676
X10414Y77724
X12065Y76200
X19939Y48387
X19050Y40640
X17780Y41910
X20320Y41910
X20320Y39370
X17780Y39370
X11811Y47117
X5958Y46074
X8890Y36576
X1651Y34290
X1778Y46990
X7600Y40600
X10541Y35560
X11811Y39370
X10541Y33020
X22860Y37846
X24130Y36449
X25400Y45339
X27940Y45339
X25400Y54229
X27940Y54229
X25400Y18669
X27940Y17399
X30480Y70739
X25400Y69850
X13589Y44196
X22225Y51181
X9652Y52070
X26670Y13970
X26670Y12700
X26670Y30226
X26670Y31750
X26670Y49530
X26670Y48006
X26670Y67310
X26670Y65786
X10160Y40640
X24003Y27940
X9652Y34290
X15113Y39802
X11430Y50800
X8001Y21590
X11430Y55880
X10390Y7620
X26649Y71141
X8191Y70549
X14986Y41478
X12319Y50800
X6350Y22860
X12319Y58420
X9390Y6350
X14008Y72390
X25400Y72390
X22288Y45212
X23114Y11430
X17107Y45974
X25743Y29210
X17780Y49530
X25400Y46990
X15446Y64770
X25019Y64770
X8890Y38862
X8890Y43053
X17780Y131318
X18034Y36703
X14732Y38100
X14732Y36830
X68580Y40640
X77470Y40767
X70612Y35179
X75057Y36703
X74549Y44450
X71882Y44577
X69850Y27051
X64262Y44196
X68580Y30734
X62230Y29083
X74930Y30734
X76200Y30734
X77470Y30734
X75565Y25781
X74549Y25400
X87376Y17399
X89789Y18669
X92075Y17526
X89789Y16256
X60706Y3556
X60706Y6477
X89789Y33909
X89789Y36576
X92202Y35306
X87376Y35306
X89789Y51689
X89789Y54356
X92075Y53086
X87503Y53086
X89789Y69596
X89789Y72009
X92075Y70866
X87503Y70866
X63754Y74676
X63754Y77724
X65405Y76200
X73279Y48387
X72390Y40640
X71120Y41910
X73660Y41910
X73660Y39370
X71120Y39370
X65151Y47117
X59298Y46074
X62230Y36576
X54991Y34290
X55118Y46990
X60940Y40600
X63881Y35560
X65151Y39370
X63881Y33020
X76200Y37846
X77470Y36449
X78740Y45339
X81280Y45339
X78740Y54229
X81280Y54229
X78740Y18669
X81280Y17399
X83820Y70739
X78740Y69850
X66929Y44196
X75565Y51181
X62992Y52070
X80010Y13970
X80010Y12700
X80010Y30226
X80010Y31750
X80010Y49530
X80010Y48006
X80010Y67310
X80010Y65786
X63500Y40640
X77343Y27940
X62992Y34290
X68453Y39802
X64770Y50800
X61341Y21590
X64770Y55880
X63730Y7620
X79989Y71141
X61531Y70549
X68326Y41478
X65659Y50800
X59690Y22860
X65659Y58420
X62730Y6350
X67348Y72390
X78740Y72390
X75629Y45212
X76454Y11430
X70447Y45974
X79083Y29210
X71120Y49530
X78740Y46990
X68786Y64770
X78359Y64770
X62230Y38862
X62230Y43053
X71374Y36703
X68072Y38100
X116070Y88138
M30